<?xml version="1.0" encoding="UTF-8"?>
<svg width="288px" height="109px" viewBox="0 0 288 109" version="1.1" xmlns="http://www.w3.org/2000/svg" xmlns:xlink="http://www.w3.org/1999/xlink">
    <!-- Generator: Sketch 47.1 (45422) - http://www.bohemiancoding.com/sketch -->
    <title>bitcamp-logo-icon (1)</title>
    <desc>Created with Sketch.</desc>
    <defs></defs>
    <g id="Page-1" stroke="none" stroke-width="1" fill="none" fill-rule="evenodd">
        <g id="Desktop" transform="translate(-368.000000, -547.000000)" fill-rule="nonzero">
            <g id="bitcamp-logo-icon-(1)" transform="translate(368.000000, 547.000000)">
                <g id="Group">
                    <path d="M287.823158,81.8006977 C287.823158,96.7463721 275.770105,108.840302 260.872421,108.840302 L260.872421,108.840302 C245.979789,108.840302 233.888842,96.7463721 233.888842,81.8006977 L233.888842,81.8006977 C233.888842,66.8499535 245.979789,54.7053256 260.872421,54.7053256 L260.872421,54.7053256 C275.770105,54.7027907 287.823158,66.8474186 287.823158,81.8006977 L287.823158,81.8006977 Z" id="Shape" fill="#806D60"></path>
                    <path d="M19.6143158,55.7674419 L19.6193684,55.7902558 C19.8997895,55.7091395 20.1903158,55.6406977 20.4732632,55.567186 L19.6143158,55.7674419 Z" id="Shape" fill="#806D60"></path>
                    <path d="M287.823158,27.6150233 C287.823158,12.6718837 275.770105,0.575418605 260.872421,0.575418605 C258.454737,0.575418605 256.122947,0.925232558 253.892211,1.52346512 L253.882105,1.48544186 L22.1052632,55.1894884 C23.7322105,54.8802326 25.4071579,54.7027907 27.1225263,54.7027907 C42.0202105,54.7027907 54.0985263,66.8474186 54.0985263,81.7981628 C54.0985263,94.3154186 45.6176842,104.799698 34.1128421,107.889721 L34.1229474,107.925209 L267.989053,53.7648837 L267.976421,53.7192558 C279.418105,50.5810698 287.823158,40.0917209 287.823158,27.6150233 Z" id="Shape" fill="#806D60"></path>
                    <path d="M54.0985263,81.8006977 C54.0985263,96.7463721 42.0227368,108.840302 27.1225263,108.840302 L27.1225263,108.840302 C12.2248421,108.840302 0.176842105,96.7463721 0.176842105,81.8006977 L0.176842105,81.8006977 C0.176842105,66.8499535 12.2223158,54.7053256 27.1225263,54.7053256 L27.1225263,54.7053256 C42.0227368,54.7027907 54.0985263,66.8474186 54.0985263,81.8006977 L54.0985263,81.8006977 Z" id="Shape" fill="#A68E7C"></path>
                    <path d="M233.888842,81.8006977 C233.888842,66.8499535 245.979789,54.7053256 260.872421,54.7053256 C262.585263,54.7053256 264.252632,54.8827674 265.874526,55.1894884 L34.1229474,1.48544186 L34.1128421,1.50318605 C31.8644211,0.963255814 29.5932632,0.575418605 27.1225263,0.575418605 C12.2248421,0.575418605 0.813473684,12.6718837 0.813473684,27.6150233 C0.813473684,39.959907 10.0572632,50.3909535 20.8724211,53.6406744 L20.7663158,53.7293953 C21.4762105,53.9473953 21.8248421,54.1451163 22.5549474,54.2059535 L253.882105,107.925209 L253.892211,107.892256 C242.384842,104.807302 233.888842,94.3179535 233.888842,81.8006977 Z" id="Shape" fill="#A68E7C"></path>
                    <path d="M268.370526,55.7877209 L268.375579,55.7674419 L267.567158,55.5798605 C267.834947,55.6483023 268.105263,55.7116744 268.370526,55.7877209 Z" id="Shape" fill="#A68E7C"></path>
                </g>
            </g>
        </g>
    </g>
</svg>